<svg width="32" height="32" viewBox="0 0 32 32" fill="none" xmlns="http://www.w3.org/2000/svg">
<g clip-path="url(#clip0_814_10607)">
<path d="M16.4251 30.0347C7.39302 30.0347 1.05469 26.1789 1.05469 16.1959C1.05469 7.53357 7.3402 2.35726 16.2139 2.35726C25.4044 2.35726 31.2675 6.95256 31.2675 15.5094C31.2675 16.4072 31.2145 17.094 31.109 18.0446H10.2453C10.4037 21.2667 11.8299 22.1645 16.0554 22.1645C20.0697 22.1645 21.126 21.478 21.126 19.8934V19.3124H31.0562V19.9461C31.0562 25.862 25.4044 30.0347 16.4251 30.0347ZM16.0026 9.96327C12.358 9.96327 10.8263 10.7556 10.4037 13.0268H21.6542C21.2845 10.7556 19.7 9.96327 16.0026 9.96327ZM47.9744 30.0347C38.9423 30.0347 32.604 26.1789 32.604 16.1959C32.604 7.53357 38.8895 2.35726 47.7631 2.35726C56.9537 2.35726 62.8168 6.95256 62.8168 15.5094C62.8168 16.4072 62.7638 17.094 62.6582 18.0446H41.7947C41.953 21.2667 43.3791 22.1645 47.6047 22.1645C51.6191 22.1645 52.6753 21.478 52.6753 19.8934V19.3124H62.6055V19.9461C62.6055 25.862 56.9537 30.0347 47.9744 30.0347ZM47.552 9.96327C43.9073 9.96327 42.3756 10.7556 41.953 13.0268H53.2035C52.8338 10.7556 51.2492 9.96327 47.552 9.96327ZM79.5237 30.0347C70.4916 30.0347 64.1533 26.1789 64.1533 16.1959C64.1533 7.53357 70.4388 2.35726 79.3124 2.35726C88.503 2.35726 94.3661 6.95256 94.3661 15.5094C94.3661 16.4072 94.3131 17.094 94.2075 18.0446H73.344C73.5023 21.2667 74.9284 22.1645 79.154 22.1645C83.1684 22.1645 84.2246 21.478 84.2246 19.8934V19.3124H94.1548V19.9461C94.1548 25.862 88.503 30.0347 79.5237 30.0347ZM79.1013 9.96327C75.4566 9.96327 73.925 10.7556 73.5023 13.0268H84.7528C84.3831 10.7556 82.7985 9.96327 79.1013 9.96327ZM108.326 30.0347C100.192 30.0347 95.7026 24.8056 95.7026 16.1959C95.7026 7.53357 100.087 2.35726 107.904 2.35726C114.189 2.35726 117.147 5.31514 117.939 9.75198H118.468V-5.88257H128.398V29.5065H119.102V22.3231H118.573C117.728 27.6049 114.559 30.0347 108.326 30.0347ZM105.738 16.1959C105.738 19.7348 107.323 20.9498 111.918 20.9498C116.355 20.9498 118.468 20.1047 118.468 16.2487V15.879C118.468 12.1289 116.355 11.3894 111.918 11.3894C107.323 11.3894 105.738 12.6571 105.738 16.1959ZM141.705 30.0347C134.258 30.0347 130.772 25.7034 130.772 19.9461V2.88547H140.702V16.3017C140.702 19.9989 142.128 21.1609 146.671 21.1609C151.266 21.1609 152.375 20.0517 152.375 16.6186V2.88547H162.305V29.5065H153.009V21.425H152.481C151.9 25.862 148.942 30.0347 141.705 30.0347Z" fill="white"/>
</g>
<defs>
<clipPath id="clip0_814_10607">
<rect width="32" height="32" fill="white"/>
</clipPath>
</defs>
</svg>
